<svg width="94" height="49" viewBox="0 0 94 49" fill="none" xmlns="http://www.w3.org/2000/svg">
<rect x="1.2207" y="1.36621" width="91.7793" height="46.5065" rx="8" stroke="black" stroke-width="2"/>
<path d="M29.5979 34.8537V30.0343H18.6028L18.0068 28.3795L29.8065 14.3858H31.8625V28.1182H35.1104V30.0343H31.8625V34.8537H29.5979ZM20.8376 28.1182H29.5979V17.6375L20.8376 28.1182Z" fill="black"/>
<path d="M53.7305 32.1537C52.1016 34.186 49.9761 35.2021 47.354 35.2021C44.7318 35.2021 42.6063 34.1957 40.9774 32.1827C39.3683 30.1505 38.5638 27.6537 38.5638 24.6924C38.5638 21.7698 39.3783 19.2923 41.0072 17.2601C42.6559 15.2084 44.7914 14.1826 47.4135 14.1826C50.0357 14.1826 52.1513 15.1988 53.7603 17.231C55.3694 19.2439 56.1739 21.7311 56.1739 24.6924C56.1739 27.615 55.3594 30.1021 53.7305 32.1537ZM42.795 30.644C43.9869 32.2892 45.5264 33.1118 47.4135 33.1118C49.3007 33.1118 50.8203 32.2989 51.9725 30.6731C53.1445 29.0279 53.7305 27.0343 53.7305 24.6924C53.7305 22.3891 53.1346 20.4149 51.9427 18.7697C50.7707 17.1052 49.2411 16.273 47.354 16.273C45.4668 16.273 43.9372 17.0955 42.7652 18.7407C41.5932 20.3665 41.0072 22.3504 41.0072 24.6924C41.0072 26.9956 41.6031 28.9795 42.795 30.644Z" fill="black"/>
<path d="M75.0308 32.1537C73.4019 34.186 71.2764 35.2021 68.6542 35.2021C66.0321 35.2021 63.9065 34.1957 62.2776 32.1827C60.6686 30.1505 59.8641 27.6537 59.8641 24.6924C59.8641 21.7698 60.6785 19.2923 62.3074 17.2601C63.9562 15.2084 66.0917 14.1826 68.7138 14.1826C71.336 14.1826 73.4515 15.1988 75.0606 17.231C76.6696 19.2439 77.4742 21.7311 77.4742 24.6924C77.4742 27.615 76.6597 30.1021 75.0308 32.1537ZM64.0953 30.644C65.2871 32.2892 66.8267 33.1118 68.7138 33.1118C70.601 33.1118 72.1206 32.2989 73.2728 30.6731C74.4448 29.0279 75.0308 27.0343 75.0308 24.6924C75.0308 22.3891 74.4349 20.4149 73.243 18.7697C72.0709 17.1052 70.5414 16.273 68.6542 16.273C66.7671 16.273 65.2375 17.0955 64.0655 18.7407C62.8934 20.3665 62.3074 22.3504 62.3074 24.6924C62.3074 26.9956 62.9034 28.9795 64.0953 30.644Z" fill="black"/>
</svg>
