<svg width="100" height="55" viewBox="0 0 100 55" fill="none" xmlns="http://www.w3.org/2000/svg">
<path d="M84.0248 2H15.9742C8.25619 2 1.99951 8.40451 1.99951 16.3049V38.6951C1.99951 46.5955 8.25619 53 15.9742 53H84.0248C91.7428 53 97.9995 46.5955 97.9995 38.6951V16.3049C97.9995 8.40451 91.7428 2 84.0248 2Z" stroke="white" stroke-width="3"/>
<path d="M27.9128 39C24.9796 39 22.3418 37.8246 19.9995 35.4738L21.6455 33.663C23.7346 35.6961 25.8342 36.7127 27.9444 36.7127C29.5271 36.7127 30.8143 36.2469 31.8059 35.3149C32.7978 34.383 33.2936 33.1865 33.2936 31.7251C33.2936 30.3485 32.7768 29.2261 31.7426 28.3577C30.7299 27.4894 29.411 27.0552 27.7861 27.0552C26.2668 27.0552 24.7158 27.4788 23.1332 28.326L21.4555 27.2141L22.0886 16.3812H34.8446V18.7003H24.2727L23.7979 25.8163C25.2961 25.1598 26.7522 24.8315 28.166 24.8315C30.3817 24.8315 32.2071 25.4563 33.6418 26.7058C35.0978 27.9341 35.8259 29.5967 35.8259 31.6934C35.8259 33.8536 35.0875 35.6115 33.6102 36.9668C32.1331 38.3222 30.234 39 27.9128 39ZM55.777 35.6644C54.0467 37.8881 51.7887 39 49.0032 39C46.2178 39 43.9598 37.8988 42.2295 35.6961C40.5202 33.4724 39.6656 30.7403 39.6656 27.5C39.6656 24.302 40.5309 21.5912 42.2612 19.3674C44.0127 17.1225 46.2811 16 49.0665 16C51.852 16 54.0994 17.1119 55.8086 19.3356C57.5179 21.5382 58.3725 24.2597 58.3725 27.5C58.3725 30.698 57.5072 33.4195 55.777 35.6644ZM44.1603 34.0124C45.4265 35.8125 47.0618 36.7127 49.0665 36.7127C51.0713 36.7127 52.6856 35.8232 53.9094 34.0442C55.1546 32.2441 55.777 30.0626 55.777 27.5C55.777 24.9797 55.1439 22.8195 53.8778 21.0193C52.6327 19.198 51.008 18.2873 49.0032 18.2873C46.9984 18.2873 45.3738 19.1874 44.1287 20.9876C42.8836 22.7666 42.2612 24.9374 42.2612 27.5C42.2612 30.0203 42.8942 32.1911 44.1603 34.0124ZM78.404 35.6644C76.6737 37.8881 74.4157 39 71.6302 39C68.8448 39 66.5868 37.8988 64.8565 35.6961C63.1472 33.4724 62.2926 30.7403 62.2926 27.5C62.2926 24.302 63.1579 21.5912 64.8881 19.3674C66.6397 17.1225 68.9081 16 71.6935 16C74.479 16 76.7264 17.1119 78.4356 19.3356C80.1449 21.5382 80.9995 24.2597 80.9995 27.5C80.9995 30.698 80.1342 33.4195 78.404 35.6644ZM66.7873 34.0124C68.0534 35.8125 69.6887 36.7127 71.6935 36.7127C73.6983 36.7127 75.3126 35.8232 76.5364 34.0442C77.7816 32.2441 78.404 30.0626 78.404 27.5C78.404 24.9797 77.7709 22.8195 76.5048 21.0193C75.2597 19.198 73.635 18.2873 71.6302 18.2873C69.6254 18.2873 68.0008 19.1874 66.7557 20.9876C65.5106 22.7666 64.8881 24.9374 64.8881 27.5C64.8881 30.0203 65.5212 32.1911 66.7873 34.0124Z" fill="white"/>
</svg>
