<svg width="16" height="10" viewBox="0 0 16 10" fill="none" xmlns="http://www.w3.org/2000/svg">
<path d="M15 5L1 5" stroke="#494949" stroke-linecap="round"/>
<path d="M5.68765 0.609566C5.90328 0.437061 6.21793 0.472021 6.39043 0.687652C6.56294 0.903283 6.52798 1.21793 6.31235 1.39043L5.68765 0.609566ZM1 5L0.687653 5.39044C0.569046 5.29555 0.500001 5.15189 0.500001 5C0.500001 4.84811 0.569046 4.70445 0.687653 4.60957L1 5ZM6.31235 8.60957C6.52798 8.78207 6.56294 9.09672 6.39044 9.31235C6.21793 9.52798 5.90328 9.56294 5.68765 9.39043L6.31235 8.60957ZM6.31235 1.39043L1.31235 5.39044L0.687653 4.60957L5.68765 0.609566L6.31235 1.39043ZM1.31235 4.60957L6.31235 8.60957L5.68765 9.39043L0.687653 5.39044L1.31235 4.60957Z" fill="#494949"/>
</svg>
