<svg width="58" height="30" viewBox="0 0 58 30" fill="none" xmlns="http://www.w3.org/2000/svg">
<rect x="1" y="1" width="56" height="28" rx="8" stroke="black" stroke-width="2"/>
<path d="M17.3773 21.5449C15.6943 21.5449 14.1809 20.8806 12.8369 19.5518L13.7813 18.5283C14.98 19.6775 16.1847 20.2521 17.3955 20.2521C18.3035 20.2521 19.0421 19.9888 19.6112 19.4621C20.1802 18.9353 20.4648 18.259 20.4648 17.433C20.4648 16.655 20.1681 16.0205 19.5748 15.5297C18.9937 15.0389 18.2369 14.7935 17.3047 14.7935C16.4329 14.7935 15.543 15.033 14.6349 15.5118L13.6723 14.8833L14.0356 8.76039H21.3547V10.0712H15.2887L15.0163 14.0933C15.8759 13.7222 16.7114 13.5366 17.5226 13.5366C18.7939 13.5366 19.8412 13.8898 20.6645 14.596C21.5 15.2903 21.9177 16.23 21.9177 17.4151C21.9177 18.6361 21.4939 19.6296 20.6464 20.3958C19.7988 21.1619 18.7091 21.5449 17.3773 21.5449Z" fill="black"/>
<path d="M33.365 19.6596C32.3722 20.9165 31.0766 21.5449 29.4784 21.5449C27.8802 21.5449 26.5847 20.9225 25.5919 19.6775C24.6111 18.4206 24.1208 16.8764 24.1208 15.0449C24.1208 13.2374 24.6172 11.7051 25.61 10.4482C26.615 9.17936 27.9165 8.54492 29.5147 8.54492C31.113 8.54492 32.4024 9.17337 33.3832 10.4303C34.3639 11.6752 34.8542 13.2134 34.8542 15.0449C34.8542 16.8525 34.3578 18.3907 33.365 19.6596ZM26.6997 18.7259C27.4262 19.7434 28.3645 20.2521 29.5147 20.2521C30.665 20.2521 31.5912 19.7493 32.2935 18.7438C33.0078 17.7263 33.365 16.4934 33.365 15.0449C33.365 13.6204 33.0018 12.3994 32.2753 11.3819C31.561 10.3525 30.6287 9.83774 29.4784 9.83774C28.3282 9.83774 27.3959 10.3465 26.6815 11.364C25.9672 12.3695 25.61 13.5965 25.61 15.0449C25.61 16.4694 25.9732 17.6964 26.6997 18.7259Z" fill="black"/>
<path d="M46.3477 19.6596C45.3548 20.9165 44.0593 21.5449 42.4611 21.5449C40.8629 21.5449 39.5674 20.9225 38.5745 19.6775C37.5938 18.4206 37.1034 16.8764 37.1034 15.0449C37.1034 13.2374 37.5999 11.7051 38.5927 10.4482C39.5976 9.17936 40.8992 8.54492 42.4974 8.54492C44.0956 8.54492 45.3851 9.17337 46.3658 10.4303C47.3465 11.6752 47.8369 13.2134 47.8369 15.0449C47.8369 16.8525 47.3405 18.3907 46.3477 19.6596ZM39.6824 18.7259C40.4088 19.7434 41.3472 20.2521 42.4974 20.2521C43.6477 20.2521 44.5739 19.7493 45.2761 18.7438C45.9905 17.7263 46.3477 16.4934 46.3477 15.0449C46.3477 13.6204 45.9844 12.3994 45.258 11.3819C44.5436 10.3525 43.6113 9.83774 42.4611 9.83774C41.3109 9.83774 40.3786 10.3465 39.6642 11.364C38.9499 12.3695 38.5927 13.5965 38.5927 15.0449C38.5927 16.4694 38.9559 17.6964 39.6824 18.7259Z" fill="black"/>
</svg>
