<svg width="18" height="40" viewBox="0 0 18 40" fill="none" xmlns="http://www.w3.org/2000/svg">
<g filter="url(#filter0_i)">
<path d="M5.60341 1.99559L2.6925 1.99559C1.2079 1.99559 -1.59591e-06 3.45037 -1.51784e-06 5.23842L-1.41596e-07 36.7572C-6.35223e-08 38.5452 1.2079 40 2.6925 40L15.3075 40C16.7921 40 18 38.5452 18 36.7572L18 5.23842C18 3.45037 16.7921 1.99559 15.3075 1.99559L12.3966 1.99559C12.293 0.874565 11.5022 -4.91928e-07 10.5443 -4.5096e-07L7.45574 -3.1887e-07C6.49783 -2.77901e-07 5.70697 0.874565 5.60341 1.99559ZM15.3075 4.49008C15.6502 4.49008 15.9288 4.82571 15.9288 5.23842L15.9288 11.7936C15.9288 12.2063 15.6502 12.5419 15.3075 12.5419L9 12.5419L2.6925 12.5419C2.34983 12.5419 2.07116 12.2063 2.07116 11.7936L2.07115 5.23842C2.07115 4.82571 2.34983 4.49008 2.6925 4.49008L15.3075 4.49008Z" fill="#CCF0EE"/>
</g>
<defs>
<filter id="filter0_i" x="0" y="0" width="23" height="45" filterUnits="userSpaceOnUse" color-interpolation-filters="sRGB">
<feFlood flood-opacity="0" result="BackgroundImageFix"/>
<feBlend mode="normal" in="SourceGraphic" in2="BackgroundImageFix" result="shape"/>
<feColorMatrix in="SourceAlpha" type="matrix" values="0 0 0 0 0 0 0 0 0 0 0 0 0 0 0 0 0 0 127 0" result="hardAlpha"/>
<feOffset dx="5" dy="5"/>
<feGaussianBlur stdDeviation="5"/>
<feComposite in2="hardAlpha" operator="arithmetic" k2="-1" k3="1"/>
<feColorMatrix type="matrix" values="0 0 0 0 0.8 0 0 0 0 0.941176 0 0 0 0 0.933333 0 0 0 1 0"/>
<feBlend mode="multiply" in2="shape" result="effect1_innerShadow"/>
</filter>
</defs>
</svg>
