<svg width="18" height="30" viewBox="0 0 18 30" fill="none" xmlns="http://www.w3.org/2000/svg">
<g filter="url(#filter0_i)">
<path d="M4.68234 10.7966C8.25137 7.94114 7.58622 3.8719 6.26713 1.06829C6.03611 0.57727 6.65818 -0.0374407 7.11383 0.257265C20.466 8.89319 9.82415 14.4579 6.68142 17.3051C4.38254 19.3878 3.39572 20.8474 2.99038 22.885C2.78997 23.8925 1.43296 24.2147 1.04471 23.2637C-1.0412 18.1544 -0.0902471 14.615 4.68234 10.7966Z" fill="#7DD4AF"/>
<path d="M9.58724 17.963C13.3415 15.4522 14.8016 13.3336 15.222 11.6378C15.3485 11.1279 16.2007 10.8263 16.4796 11.2716C20.8994 18.3271 14.5574 21.4073 11.7177 23.2963C8.79607 25.2398 8.08439 26.5184 7.43756 28.5304C7.15799 29.4 6.03231 29.4618 5.78695 28.5819C4.93657 25.5324 4.81377 21.1553 9.58724 17.963Z" fill="#7DD4AF"/>
</g>
<defs>
<filter id="filter0_i" x="0" y="0.179688" width="23" height="34.0324" filterUnits="userSpaceOnUse" color-interpolation-filters="sRGB">
<feFlood flood-opacity="0" result="BackgroundImageFix"/>
<feBlend mode="normal" in="SourceGraphic" in2="BackgroundImageFix" result="shape"/>
<feColorMatrix in="SourceAlpha" type="matrix" values="0 0 0 0 0 0 0 0 0 0 0 0 0 0 0 0 0 0 127 0" result="hardAlpha"/>
<feOffset dx="5" dy="5"/>
<feGaussianBlur stdDeviation="5"/>
<feComposite in2="hardAlpha" operator="arithmetic" k2="-1" k3="1"/>
<feColorMatrix type="matrix" values="0 0 0 0 0.8 0 0 0 0 0.941176 0 0 0 0 0.933333 0 0 0 1 0"/>
<feBlend mode="multiply" in2="shape" result="effect1_innerShadow"/>
</filter>
</defs>
</svg>
