<svg width="10" height="48" viewBox="0 0 10 48" fill="none" xmlns="http://www.w3.org/2000/svg">
<path d="M5.33021 10.675L9.42581 10.675C9.77122 10.6702 10 10.9173 10 11.2831C10 11.649 9.77122 11.8913 9.42581 11.8913L5.47825 11.8865C3.52241 11.8865 2.69701 12.7512 2.69701 14.8511L2.70149 16.3809C2.69701 16.7468 2.47272 16.9891 2.1273 16.9891C1.78189 16.9891 1.54863 16.7468 1.55311 16.3809L1.55311 14.6753C1.54863 12.1145 2.91233 10.6702 5.33021 10.675ZM9.93271 31.2753L9.93271 32.159C9.93271 34.7198 8.57798 36.1498 6.15561 36.1546L2.05104 36.1546C1.70563 36.1498 1.48134 35.9123 1.48134 35.5464C1.48134 35.1806 1.70563 34.9336 2.05104 34.9383L6.00309 34.9288C7.96341 34.9336 8.77536 34.0736 8.77536 31.9784L8.77536 31.4558C8.77536 29.3607 7.9679 28.4912 6.00309 28.4912L2.05553 28.496C1.70563 28.4912 1.48134 28.2537 1.48134 27.8878C1.48134 27.522 1.70563 27.275 2.05553 27.2797L6.15561 27.2797C8.57798 27.275 9.93271 28.7145 9.93271 31.2753ZM9.93271 4.67925L9.93271 5.56293C9.93271 7.99544 8.70807 9.55376 6.40234 9.55376C4.11454 9.55376 2.86747 7.99544 2.87196 5.56293L2.87196 3.81456C2.86747 3.44399 3.10074 3.20644 3.44615 3.20644C3.79156 3.20644 4.01585 3.44399 4.02034 3.81456L4.01585 5.38239C4.01585 7.3493 4.72014 8.33276 6.40234 8.33276C8.08454 8.33276 8.77536 7.3493 8.77536 5.38239L8.77536 4.85978C8.77536 2.7646 7.9679 1.89516 6.00309 1.89516L2.05553 1.89991C1.70563 1.89516 1.48134 1.65761 1.48134 1.29179C1.48134 0.925961 1.70563 0.67891 2.05553 0.683661L6.15561 0.683661C8.57798 0.67891 9.93271 2.11846 9.93271 4.67925ZM9.93271 41.3664L9.93271 42.2501C9.93271 44.8109 8.57798 46.2457 6.15561 46.2457L4.1908 46.2457C3.8409 46.2409 3.60764 46.0034 3.60764 45.6376C3.60764 45.2717 3.8409 45.0247 4.1908 45.0294L6.00758 45.0199C7.9679 45.0247 8.77984 44.1647 8.77984 42.0696L8.77984 41.5469C8.77984 39.4518 7.97687 38.5823 6.00758 38.5823L5.48273 38.5823C3.51792 38.5823 2.70149 39.447 2.70149 41.5469L2.70149 44.9154C2.70149 45.7848 2.49963 46.0889 2.06002 46.5545L1.79535 46.8348C1.50825 47.1389 1.15836 47.1674 0.916119 46.9061C0.669396 46.6448 0.682854 46.2884 1.01929 45.9369L1.31087 45.6281C1.44994 45.476 1.5576 45.3382 1.56208 44.9582L1.56208 41.3617C1.5576 38.8056 2.91682 37.3661 5.33918 37.3661L6.1601 37.3661C8.57798 37.3708 9.93271 38.8056 9.93271 41.3664ZM6.00309 18.4001L5.47825 18.4001C3.51344 18.4001 2.69701 19.2648 2.69701 21.3647L2.69701 21.8873C2.69701 23.9825 3.51344 24.8377 5.47825 24.8377L6.00309 24.8377C7.9679 24.8377 8.77536 23.9825 8.77536 21.8873L8.77536 21.3647C8.77536 19.2695 7.97239 18.4001 6.00309 18.4001ZM9.93271 21.1842L9.93271 22.0679C9.93271 24.6287 8.57798 26.0635 6.15561 26.0635L5.3347 26.0635C2.91233 26.0635 1.5576 24.6287 1.5576 22.0679L1.5576 21.1842C1.5576 18.6234 2.91233 17.1886 5.3347 17.1886L6.15561 17.1886C8.57798 17.1886 9.93271 18.6282 9.93271 21.1842Z" fill="white"/>
</svg>
